<svg width="140" height="140" xmlns="http://www.w3.org/2000/svg" fill="none">
 <defs>
  <clipPath id="clip0_109_2">
   <rect id="svg_1" fill="white" height="140" width="140"/>
  </clipPath>
 </defs>
 <g>
  <title>Layer 1</title>
  <g transform="rotate(-180 70 70)" id="svg_2" clip-path="url(#clip0_109_2)">
   <path id="svg_3" fill="#49bbf4" d="m73.281,27.8306c13.1291,4.3058 24.7108,11.9923 33.781,22.0052c1.494,-1.3377 3.266,-2.1221 5.173,-2.1221c0.56,0 1.107,0.0811 1.639,0.2098c3.358,-9.3714 4.551,-19.4672 3.017,-29.7322c-0.008,-0.0635 -0.026,-0.1234 -0.035,-0.1869c-6.128,-5.5238 -13.236,-9.97593 -21.0339,-13.07447c-8.3262,6.18117 -15.9774,13.88177 -22.5411,22.90067z"/>
   <path id="svg_4" fill="#49bbf4" d="m41.536,24.2966c2.4005,-0.2256 4.8223,-0.3825 7.2828,-0.3825c6.2358,0 12.2936,0.7403 18.1065,2.115c6.7188,-9.144 14.5638,-16.91855 23.0875,-23.11034c-6.3399,-1.89296 -13.0569,-2.91876 -20.0136,-2.91876c-8.1059,0 -15.884,1.39417 -23.1245,3.92869c-3.8899,5.26646 -7.1048,11.05111 -9.5917,17.20941c1.8348,0.6398 3.3329,1.7308 4.253,3.1585z"/>
   <path id="svg_5" fill="#49bbf4" d="m33.7579,36.5251c-0.3279,0.0775 -0.6539,0.141 -0.9782,0.1938c-0.7791,4.4169 -1.2091,8.9537 -1.2091,13.5945c0,13.3653 3.3981,25.9198 9.3167,36.9163c1.2761,-0.1657 2.6015,-0.1657 3.9411,-0.0176c0.712,-13.806 4.1525,-28.109 10.651,-41.9237c2.0815,-4.4275 4.4116,-8.6364 6.9391,-12.6356c-5.6243,-1.2814 -11.4794,-1.9582 -17.495,-1.9582c-1.0769,0 -2.1397,0.0617 -3.206,0.1093c-1.3413,2.6173 -4.2495,4.8381 -7.9596,5.7212z"/>
   <path id="svg_6" fill="#49bbf4" d="m68.8253,34.4312c-2.4252,3.8775 -4.6707,7.949 -6.6818,12.2267c-6.613,14.058 -10.0482,28.6165 -10.6704,42.6463c2.5645,1.3941 4.6302,3.3241 6.0808,5.5255c19.1165,-4.0714 35.2155,-14.3946 45.9121,-28.0983c-0.548,-1.692 -0.86,-3.5656 -0.86,-5.5432c0,-1.6021 0.212,-3.1338 0.576,-4.5579c-9.2035,-10.1628 -20.9896,-17.9268 -34.3567,-22.1991z"/>
   <path id="svg_7" fill="#49bbf4" d="m30.3033,94.738c0.8284,-1.9599 2.1609,-3.5744 3.8106,-4.817c-5.8869,-10.9789 -9.2498,-23.514 -9.2498,-36.8441c0,-5.7529 0.6874,-11.3366 1.8771,-16.7317c-1.5634,-0.5041 -2.8959,-1.329 -3.8582,-2.4094c-5.8128,1.6991 -11.3578,4.0221 -16.53082,6.9373c-4.06617,8.8709 -6.35218,18.7305 -6.35218,29.1277c0,5.975 0.7526,11.772 2.16087,17.3063c8.32273,4.5139 17.70823,7.5384 27.67353,8.7722c0.1287,-0.4512 0.2821,-0.8989 0.4689,-1.3413z"/>
   <path id="svg_8" fill="#49bbf4" d="m112.235,74.6592c-1.384,0 -2.699,-0.4142 -3.887,-1.1509c-11.0807,14.4775 -28.1473,25.2853 -48.4465,29.0657c-0.0317,1.454 -0.3119,2.905 -0.8989,4.296c-0.2908,0.685 -0.6556,1.32 -1.0592,1.924c13.5098,11.975 31.1739,19.349 50.5776,19.645c5.538,-3.657 10.522,-8.081 14.805,-13.118c0.152,-1.971 0.258,-3.955 0.258,-5.966c0,-12.7169 -3.081,-24.6916 -8.446,-35.3179c-0.917,0.4018 -1.892,0.6221 -2.903,0.6221z"/>
   <path id="svg_9" fill="#49bbf4" d="m53.2286,113.268c1.9424,9.568 5.3476,18.504 10.0994,26.406c2.1979,0.206 4.4204,0.326 6.6729,0.326c12.3307,0 23.9071,-3.199 33.9691,-8.795c-0.319,0.003 -0.631,0.03 -0.948,0.03c-18.9349,-0.002 -36.2729,-6.761 -49.7934,-17.967z"/>
   <path id="svg_10" fill="#49bbf4" d="m39.4596,113.097c-4.9403,-2.087 -8.3914,-6.065 -9.5987,-10.41c-9.4014,-1.702 -18.2,-5.016 -25.96747,-9.6638c8.13407,23.3558 28.28517,41.0738 53.04877,45.7488c-4.4627,-7.297 -7.7428,-15.507 -9.7891,-24.283c-2.501,0.122 -5.1378,-0.312 -7.6935,-1.392z"/>
   <path id="svg_11" fill="#49bbf4" d="m30.0319,20.8772c0.6574,-0.1569 1.3113,-0.2591 1.9564,-0.3225c2.2649,-4.9228 5.0056,-9.5794 8.1958,-13.89235c-12.685,5.98205 -23.2778,15.65835 -30.39846,27.64715c3.66956,-2.1027 7.53136,-3.9005 11.53936,-5.4004c0.4917,-3.5586 3.941,-6.8968 8.7069,-8.0319z"/>
   <path id="svg_12" fill="#49bbf4" d="m140,70.0008c0,-18.7076 -7.353,-35.6878 -19.309,-48.2459c0.263,1.232 0.494,2.4781 0.683,3.7401c1.366,9.1511 0.562,18.17 -2.006,26.6619c1.546,2.39 2.497,5.552 2.497,9.0312c0,2.9804 -0.699,5.7265 -1.872,7.9579c4.779,10.1486 7.482,21.4676 7.482,33.43c0,2.683 -0.149,5.328 -0.412,7.944c8.134,-11.4391 12.937,-25.4143 12.937,-40.5192z"/>
   <path id="svg_13" fill="#23f4ff" d="m41.9405,107.218c4.1326,1.747 8.6955,0.294 10.1916,-3.245c1.4961,-3.539 -0.6411,-7.8239 -4.7737,-9.5709c-4.1325,-1.7471 -8.6954,-0.2944 -10.1915,3.2445c-1.4961,3.5394 0.6411,7.8244 4.7736,9.5714z"/>
   <path stroke="null" id="svg_14" fill="#23f4ff" d="m112.235,66.8952c2.252,0 4.078,-2.5559 4.078,-5.7088c0,-3.1529 -1.826,-5.7089 -4.078,-5.7089c-2.253,0 -4.079,2.556 -4.079,5.7089c0,3.1529 1.826,5.7088 4.079,5.7088z"/>
   <path id="svg_15" fill="#23f4ff" d="m32.6862,32.0288c2.4599,-0.5865 4.0987,-2.5525 3.6603,-4.3913c-0.4384,-1.8388 -2.7879,-2.854 -5.2478,-2.2675c-2.4599,0.5865 -4.0987,2.5525 -3.6603,4.3913c0.4384,1.8388 2.7879,2.854 5.2478,2.2675z"/>
  </g>
 </g>
</svg>